<?xml version="1.0" standalone="no"?><!DOCTYPE svg PUBLIC "-//W3C//DTD SVG 1.1//EN" "http://www.w3.org/Graphics/SVG/1.1/DTD/svg11.dtd"><svg t="1611421047814" class="icon" viewBox="0 0 1024 1024" version="1.1" xmlns="http://www.w3.org/2000/svg" p-id="10384" xmlns:xlink="http://www.w3.org/1999/xlink" width="128" height="128"><defs><style type="text/css"></style></defs><path d="M512 512m-448 0a448 448 0 1 0 896 0 448 448 0 1 0-896 0Z" fill="#B2E8FF" p-id="10385"></path><path d="M782.592 475.52H751.36v-190.72c0-35.968-29.312-65.28-65.28-65.28H536.576c-35.968 0-65.28 29.312-65.28 65.28v45.184H313.472c-34.432 0-62.336 28.032-62.336 62.336v361.984c0 34.432 28.032 62.336 62.336 62.336h250.24c34.432 0 62.336-28.032 62.336-62.336V392.32c0-34.432-28.032-62.336-62.336-62.336h-76.928v-45.184c0-27.52 22.4-49.92 49.92-49.92H686.08c27.52 0 49.92 22.4 49.92 49.92v190.848h-31.232c-23.168 0-41.856 18.816-41.856 41.856v40.064c0 16.256 9.344 30.336 22.784 37.248v34.048c0 13.696 11.136 24.832 24.832 24.832h66.56c13.696 0 24.832-11.136 24.832-24.832v-34.048c13.568-6.912 22.784-20.992 22.784-37.248v-40.064c-0.256-23.168-18.944-41.984-42.112-41.984z m-313.856-51.968v3.328c0 2.56-2.176 4.736-4.736 4.736h-136.96c-2.56 0-4.736-2.176-4.736-4.736v-3.328c0-2.56 2.176-4.736 4.736-4.736h136.96c2.56 0 4.736 2.176 4.736 4.736z" fill="#1A6C91" opacity=".5" p-id="10386"></path><path d="M781.184 578.56v37.504c0 9.472-7.68 17.152-17.152 17.152h-66.56c-9.472 0-17.152-7.68-17.152-17.152v-38.528" fill="#FFFFFF" p-id="10387"></path><path d="M764.032 640.896h-66.56c-13.696 0-24.832-11.136-24.832-24.832v-38.528c0-4.224 3.456-7.68 7.68-7.68s7.68 3.456 7.68 7.68v38.528c0 5.248 4.224 9.472 9.472 9.472h66.56c5.248 0 9.472-4.224 9.472-9.472V578.56c0-4.224 3.456-7.68 7.68-7.68s7.68 3.456 7.68 7.68v37.504c0 13.696-11.136 24.832-24.832 24.832zM730.88 478.08c-4.224 0-7.68-3.456-7.68-7.68v-198.4c0-27.52-22.4-49.92-49.92-49.92H523.776c-27.52 0-49.92 22.4-49.92 49.92v52.864c0 4.224-3.456 7.68-7.68 7.68s-7.68-3.456-7.68-7.68v-52.864c0-35.968 29.312-65.28 65.28-65.28H673.28c35.968 0 65.28 29.312 65.28 65.28v198.528c0 4.096-3.456 7.552-7.68 7.552z" fill="#1A6C91" p-id="10388"></path><path d="M769.792 578.944h-77.952c-18.816 0-34.176-15.36-34.176-34.176v-40.064c0-18.816 15.36-34.176 34.176-34.176h77.952c18.816 0 34.176 15.36 34.176 34.176v40.064c0 18.816-15.36 34.176-34.176 34.176z" fill="#FFFFFF" p-id="10389"></path><path d="M769.792 586.624h-77.952c-23.168 0-41.856-18.816-41.856-41.856v-40.064c0-23.168 18.816-41.856 41.856-41.856h77.952c23.168 0 41.856 18.816 41.856 41.856v40.064c0 23.04-18.688 41.856-41.856 41.856z m-77.952-108.544c-14.592 0-26.496 11.904-26.496 26.496v40.064c0 14.592 11.904 26.496 26.496 26.496h77.952c14.592 0 26.496-11.904 26.496-26.496v-40.064c0-14.592-11.904-26.496-26.496-26.496h-77.952z" fill="#1A6C91" p-id="10390"></path><path d="M550.784 324.864H300.672c-30.208 0-54.656 24.448-54.656 54.656v361.984c0 30.208 24.448 54.656 54.656 54.656h250.24c30.208 0 54.656-24.448 54.656-54.656V379.52c-0.128-30.208-24.576-54.656-54.784-54.656z m-87.168 89.216c0 6.784-5.504 12.416-12.416 12.416h-136.96c-6.784 0-12.416-5.504-12.416-12.416v-3.328c0-6.784 5.504-12.416 12.416-12.416h136.96c6.784 0 12.416 5.504 12.416 12.416v3.328z" fill="#FFFFFF" p-id="10391"></path><path d="M550.784 803.84H300.672c-34.432 0-62.336-28.032-62.336-62.336V379.52c0-34.432 28.032-62.336 62.336-62.336h250.24c34.432 0 62.336 28.032 62.336 62.336v361.984c-0.128 34.304-28.032 62.336-62.464 62.336zM300.672 332.544c-25.984 0-46.976 21.12-46.976 46.976v361.984c0 25.984 21.12 46.976 46.976 46.976h250.24c25.984 0 46.976-21.12 46.976-46.976V379.52c0-25.984-21.12-46.976-46.976-46.976H300.672z m150.528 101.504h-136.96c-11.008 0-20.096-8.96-20.096-20.096v-3.328c0-11.008 8.96-20.096 20.096-20.096h136.96c11.008 0 20.096 8.96 20.096 20.096v3.328c0 11.136-8.96 20.096-20.096 20.096z m-136.832-28.032c-2.56 0-4.736 2.176-4.736 4.736v3.328c0 2.56 2.176 4.736 4.736 4.736h136.96c2.56 0 4.736-2.176 4.736-4.736v-3.328c0-2.56-2.176-4.736-4.736-4.736h-136.96z" fill="#1A6C91" p-id="10392"></path></svg>