<?xml version="1.0" standalone="no"?><!DOCTYPE svg PUBLIC "-//W3C//DTD SVG 1.1//EN" "http://www.w3.org/Graphics/SVG/1.1/DTD/svg11.dtd"><svg t="1611421022537" class="icon" viewBox="0 0 1024 1024" version="1.1" xmlns="http://www.w3.org/2000/svg" p-id="10184" xmlns:xlink="http://www.w3.org/1999/xlink" width="128" height="128"><defs><style type="text/css"></style></defs><path d="M170.664 405.328h682.64V1024H170.664z" fill="#434A54" p-id="10185"></path><path d="M767.992 917.312c-11.782 0-21.312 9.562-21.312 21.376 0 11.75 9.532 21.312 21.312 21.312h85.312v-42.688h-85.312zM255.992 960c11.782 0 21.328-9.562 21.328-21.312 0-11.812-9.546-21.376-21.328-21.376H170.664V960h85.328z" fill="#656D78" p-id="10186"></path><path d="M589.18 353.64c-159.078-42.61-322.578 51.782-365.188 210.86-42.624 159.032 51.766 322.532 210.828 365.124 159.046 42.624 322.546-51.75 365.172-210.812S748.242 396.266 589.18 353.64z" fill="#CCD1D9" p-id="10187"></path><path d="M588.304 929.938l-76.312-284.75-76.282 284.688c51.86 13.748 104.172 12.936 152.594 0.062z" fill="#E6E9ED" p-id="10188"></path><path d="M534.07 558.782c-45.5-12.188-92.282 14.812-104.484 60.344-12.188 45.5 14.812 92.25 60.328 104.468 45.516 12.188 92.296-14.812 104.484-60.344 12.188-45.5-14.812-92.25-60.328-104.468z" fill="#ED5564" p-id="10189"></path><path d="M170.664 21.328h682.64V704H170.664z" fill="#FFCE54" p-id="10190"></path><path d="M149.32 0v725.312h725.36V0H149.32z m682.672 682.688h-640V42.672h640v640.016z" fill="#F6BB42" p-id="10191"></path><path d="M746.68 362.672c0 129.594-105.062 234.64-234.688 234.64-129.594 0-234.656-105.046-234.656-234.64C277.336 233.062 382.398 128 511.992 128c129.626 0 234.688 105.062 234.688 234.672z" fill="#F6BB42" p-id="10192"></path><path d="M618.68 362.672c0 58.906-47.75 106.656-106.688 106.656-58.906 0-106.656-47.75-106.656-106.656 0-58.922 47.75-106.672 106.656-106.672 58.938 0 106.688 47.75 106.688 106.672z" fill="#FFCE54" p-id="10193"></path><path d="M725.304 170.672a21.36 21.36 0 0 0 15.124-6.25l64-64a21.36 21.36 0 0 0 6.25-15.094c0-11.782-9.562-21.328-21.376-21.328a21.266 21.266 0 0 0-15.062 6.25l-64 64a21.188 21.188 0 0 0-6.25 15.078c0.002 11.782 9.564 21.344 21.314 21.344zM804.43 624.938l-64-64a21.296 21.296 0 0 0-15.124-6.25c-11.75 0-21.312 9.532-21.312 21.312 0 5.876 2.376 11.218 6.25 15.062l64 64a21.206 21.206 0 0 0 15.062 6.25c11.812 0 21.376-9.532 21.376-21.312a21.29 21.29 0 0 0-6.252-15.062zM314.18 134.25l-64-64A21.292 21.292 0 0 0 235.086 64c-11.782 0-21.328 9.546-21.328 21.328 0 5.89 2.39 11.234 6.25 15.094l64 64a21.254 21.254 0 0 0 15.078 6.25c11.782 0 21.344-9.562 21.344-21.344 0-5.89-2.39-11.218-6.25-15.078zM299.086 554.688a21.196 21.196 0 0 0-15.078 6.25l-64 64a21.218 21.218 0 0 0-6.25 15.062c0 11.782 9.546 21.312 21.328 21.312 5.89 0 11.234-2.376 15.094-6.25l64-64a21.218 21.218 0 0 0 6.25-15.062c0-11.782-9.562-21.312-21.344-21.312z" fill="#F6BB42" p-id="10194"></path><path d="M853.304 981.312H170.664c-11.782 0-21.344 9.562-21.344 21.376 0 11.75 9.562 21.312 21.344 21.312h682.64c11.812 0 21.376-9.562 21.376-21.312a21.366 21.366 0 0 0-21.376-21.376z" fill="#656D78" p-id="10195"></path></svg>