<?xml version="1.0" standalone="no"?><!DOCTYPE svg PUBLIC "-//W3C//DTD SVG 1.1//EN" "http://www.w3.org/Graphics/SVG/1.1/DTD/svg11.dtd"><svg t="1611420998410" class="icon" viewBox="0 0 1024 1024" version="1.1" xmlns="http://www.w3.org/2000/svg" p-id="9863" xmlns:xlink="http://www.w3.org/1999/xlink" width="128" height="128"><defs><style type="text/css"></style></defs><path d="M693.5 763.6h-361v-690c0-33 26.8-59.8 59.8-59.8h241.4c33 0 59.8 26.8 59.8 59.8v690z" fill="#F9C85D" p-id="9864"></path><path d="M674.9 1013.1H351.1c-50.7 0-91.7-41.1-91.7-91.7V263.2h507.2v658.1c0 50.7-41.1 91.8-91.7 91.8z" fill="#83C6EF" p-id="9865"></path><path d="M693.5 763.6H513V13.8h121.7c32.5 0 58.9 26.4 58.9 58.9v690.9z" fill="#FFB103" p-id="9866"></path><path d="M671.4 1013.1H513V263.2h253.6v654.6c0 52.6-42.6 95.3-95.2 95.3z" fill="#429BCF" p-id="9867"></path><path d="M397.3 76.5h32.5V232h-32.5zM496.8 76.5h32.5V232h-32.5zM596.3 76.5h32.5V232h-32.5z" fill="#1A7FC0" p-id="9868"></path><path d="M413.5 76.5h16.3V232h-16.3zM513 76.5h16.3V232H513zM612.5 76.5h16.3V232h-16.3z" fill="#2D416C" p-id="9869"></path><path d="M679.3 880.7m-23.4 0a23.4 23.4 0 1 0 46.8 0 23.4 23.4 0 1 0-46.8 0Z" fill="#DA3329" p-id="9870"></path><path d="M679.3 857.3v46.8c12.9 0 23.4-10.5 23.4-23.4 0-12.9-10.5-23.4-23.4-23.4z" fill="#C11B16" p-id="9871"></path></svg>